<?xml version="1.0" encoding="UTF-8"?>
<svg id="Layer_1" data-name="Layer 1" xmlns="http://www.w3.org/2000/svg" version="1.1" viewBox="0 0 1892.8 627.8">
  <defs>
    <style>
      .cls-1 {
        stroke-width: 6px;
      }

      .cls-1, .cls-2, .cls-3, .cls-4, .cls-5 {
        fill: #000;
      }

      .cls-1, .cls-2, .cls-6, .cls-7, .cls-5, .cls-8 {
        stroke: #000;
        stroke-miterlimit: 10;
      }

      .cls-2 {
        stroke-width: 12px;
      }

      .cls-3 {
        font-family: HelveticaNeue-Medium, 'Helvetica Neue';
        font-size: 65.9px;
        font-weight: 500;
        letter-spacing: 0em;
      }

      .cls-6 {
        stroke-width: 4px;
      }

      .cls-6, .cls-7, .cls-9 {
        fill: #fff;
      }

      .cls-10, .cls-4, .cls-9 {
        stroke-width: 0px;
      }

      .cls-10, .cls-11 {
        fill: #0583a5;
      }

      .cls-7, .cls-5, .cls-8 {
        stroke-width: 9px;
      }

      .cls-8 {
        fill: none;
      }

      .cls-11 {
        font-family: Avenir-Black, Avenir;
        font-size: 97.7px;
        font-weight: 800;
        letter-spacing: 0em;
      }
    </style>
  </defs>
  <g id="ReparacionesElite2">
    <text class="cls-11" transform="translate(701.4 343.4)"><tspan x="0" y="0">REPARACIONES ELITE</tspan></text>
    <text class="cls-3" transform="translate(709.3 426.5)"><tspan x="0" y="0">Todo en Línea Blanca</tspan></text>
    <path class="cls-10" d="M317.3,460.2c-15.7-24.7-24.9-53.9-24.9-85.4,0-87.7,71.1-158.8,158.8-158.8s158.8,71.1,158.8,158.8-6.2,50.5-17.3,72.2"/>
    <path class="cls-6" d="M637.8,438.7c-10.8,3.4-20.3,6.4-29.7,9.4-7,2.2-7.8,3.6-5.6,10.6,1.6,5.1,3.1,10.3,4.8,15.4,1.7,5.3,3.7,6.4,9.1,4.8,8.4-2.5,16.7-5.2,25.1-7.8,1.7-.5,3.4-1,6-1.7-1.6,11.5-6.9,19.7-15.4,25.9-13.1,9.4-30.3,9.6-43.5.3-12-8.4-25.2-12.4-39.8-12.4-72.6,0-145.1-.2-217.7-.4-6.3,0-11.7,1.8-16.9,5.5-10.1,7.4-23.1,7.4-33.1.5-10-6.8-14.6-19.3-11.5-31.1,3.1-11.8,12.9-20.1,25.3-21.4,7.4-.7,14.1,1.3,19.9,5.8,4.7,3.7,9.9,5.2,15.9,5.2,72.2,0,144.5.2,216.7.3,14.8,0,28-4.8,40-13.4,14.4-10.4,32.2-10.2,45.6,0,1.4,1.1,2.6,2.4,5,4.5ZM318.9,465c-.3-9.3-12.4-21.4-21.5-21.4-9.2,0-22.4,13.3-21.6,21.8.9,9.7,13,21.6,21.7,21.2,9.4-.4,21.6-12.8,21.4-21.5ZM530,456.1c0-.4,0-.8,0-1.1-52.5,0-104.9-.2-157.4-.2,0,.4,0,.8,0,1.1,52.5,0,104.9.2,157.4.2ZM372.9,474.2c0,.4-.1.8-.2,1.2,52.4,0,104.8.2,157.2.2v-1.2c-52.3,0-104.6-.1-156.9-.2Z"/>
    <g>
      <rect class="cls-7" x="356.6" y="250.4" width="189.4" height="231.3" rx="25.7" ry="25.7"/>
      <line class="cls-8" x1="357.9" y1="290.7" x2="544.6" y2="290.7"/>
      <circle class="cls-8" cx="451.3" cy="385" r="70"/>
      <circle class="cls-5" cx="451.3" cy="387.2" r="45.3"/>
      <rect class="cls-2" x="381.2" y="268.5" width="31.1" height="4.5" rx="2.3" ry="2.3"/>
      <rect class="cls-1" x="415.4" y="268.5" width="31.1" height="4.5" transform="translate(701.7 -160.2) rotate(90)"/>
    </g>
    <path class="cls-9" d="M457.9,394.5c-.9-1.4-1.5-2.8-1.9-4.3,0-.2-.2-.2-.4-.2-1.3,0-2.6,0-3.9,0-.4,0-.5,0-.5-.4,0-1.5,0-3,0-4.5,0-.3.1-.5.5-.5,1.3,0,2.7,0,4,0,.2,0,.4,0,.4-.3.4-1.4.9-2.6,1.7-3.8.1-.2,0-.3,0-.5-1-.9-1.9-1.8-2.9-2.7-.3-.2-.3-.4,0-.6,1.1-1,2.2-2.1,3.3-3.1.3-.3.4-.3.7,0,1,.9,2,1.8,2.9,2.8.2.2.3.2.5,0,1.2-.7,2.5-1.2,3.9-1.5.3,0,.3-.2.3-.4,0-1.3,0-2.7,0-4,0-.3.1-.5.5-.5,1.6,0,3.1,0,4.7,0,.4,0,.5.1.5.5,0,1.3,0,2.7,0,4,0,.2,0,.3.2.4,1.5.3,2.9.9,4.2,1.6,0,0,0,0,.1,0,1-1,2.1-2,3.2-3,.4-.4.4-.4.8,0,1.1,1,2.2,2.1,3.3,3.1.3.2.3.4,0,.6-1,.9-2,1.9-3,2.8-.1.1-.2.2,0,.4.8,1.2,1.4,2.5,1.8,3.9,0,0,0,0,0,.2.1,0,.3,0,.4,0,1.4,0,2.7,0,4.1,0,.3,0,.5.1.5.4,0,1.5,0,3,0,4.5,0,.3-.1.4-.5.4-1.3,0-2.6,0-4,0-.1,0-.3,0-.4,0-.4,1.6-.9,3-1.9,4.5.1,0,.3.1.4.3.9.8,1.8,1.7,2.7,2.5.2.2.2.4,0,.6-1.1,1-2.2,2.1-3.4,3.2-.2.2-.4.2-.7,0-.9-.9-1.8-1.7-2.8-2.6-.2-.2-.3-.2-.5,0-1.3.8-2.7,1.3-4.2,1.7-.2,0-.3.2-.3.4,0,1.2,0,2.4,0,3.6,0,.3-.1.5-.5.5-1.6,0-3.1,0-4.7,0-.4,0-.5-.1-.5-.5,0-1.2,0-2.4,0-3.6,0-.2,0-.3-.3-.4-1.6-.3-3-.9-4.4-1.8,0,0,0,0-.1,0-.9.8-1.7,1.6-2.6,2.4-.2.1-.3.3-.5.4-.2.1-.3.2-.5,0-1.2-1.1-2.4-2.2-3.5-3.4-.2-.2-.1-.3,0-.5.9-.9,1.8-1.7,2.7-2.6,0,0,.2-.2.3-.2Z"/>
    <circle class="cls-4" cx="469.5" cy="387.2" r="8.5"/>
    <path class="cls-9" d="M458.4,354.6c-17.8,2.1-31.4,15.9-32.8,33.3-.3,3.6-2.9,3.4-4.9,3.9-2.4.6-2.1-1.7-2.5-3-4.7-15.9,6.7-32.9,24-35.9,6.4-1.1,11.9-.6,16.2,1.7Z"/>
    <circle class="cls-4" cx="515.6" cy="270.8" r="9"/>
  </g>
</svg>